<svg xmlns="http://www.w3.org/2000/svg" width="98.317" height="17.401" viewBox="0 0 98.317 17.401"><g transform="translate(-6 -22.75)"><g transform="translate(0 12.75)"><path d="M9.159,26.738l5.66,3.413-1.5-6.438,5-4.329-6.586-.565L9.159,12.75,6.586,18.819,0,19.385l5,4.329L3.5,30.151Z" transform="translate(6 -2.75)" fill="#00799e"/></g></g><path d="M9.159,26.738l5.66,3.413-1.5-6.438,5-4.329-6.586-.565L9.159,12.75,6.586,18.819,0,19.385l5,4.329L3.5,30.151Z" transform="translate(20 -12.75)" fill="#00799e"/><path d="M9.159,26.738l5.66,3.413-1.5-6.438,5-4.329-6.586-.565L9.159,12.75,6.586,18.819,0,19.385l5,4.329L3.5,30.151Z" transform="translate(40 -12.75)" fill="#00799e"/><path d="M9.159,26.738l5.66,3.413-1.5-6.438,5-4.329-6.586-.565L9.159,12.75,6.586,18.819,0,19.385l5,4.329L3.5,30.151Z" transform="translate(60 -12.75)"/><path d="M9.159,26.738l5.66,3.413-1.5-6.438,5-4.329-6.586-.565L9.159,12.75,6.586,18.819,0,19.385l5,4.329L3.5,30.151Z" transform="translate(80 -12.75)"/></svg>